# File exported by ZBrush version 2024
# www.zbrush.com
#Vertex Count 1090
#Face Count 1088
#Auto scale x=1.000000 y=1.000000 z=1.000000
#Auto offset x=0.000000 y=0.000000 z=0.000000
v -0.43252232 -0.20919984 1.5159707
v -0.3752816 0.43800205 1.3940165
v -0.56855762 0.44483387 0.76428622
v -0.64650541 0.37081408 0.73116701
v -0.1966373 0.5943855 0.65694856
v -0.40232309 0.38797202 0.57007449
v -0.28895786 0.41267314 0.46974229
v -0.88150864 0.2664465 0.42612099
v -0.9180876 0.12451754 0.40865016
v -0.26012551 0.5049498 0.03805001
v -0.44448894 0.31561204 0.03660886
v -0.31702005 0.97227716 -0.01320299
v -0.30844679 0.29924285 -0.02304327
v -0.24060744 0.3758246 -0.04604769
v -1.08355557 0.10231668 -0.12957392
v -0.96183222 0.01479319 -0.54456818
v -0.75558131 -0.23327544 -0.59400069
v -0.20106922 0.53780466 0.72985661
v -0.35645091 -0.23375684 1.54569542
v -0.37350755 -0.14904095 1.61856019
v -0.46737167 -0.14481735 1.54499423
v -0.53843265 -0.15407933 1.43951702
v -0.46787232 -0.24103698 1.43668448
v -0.3674947 -0.3005228 1.43520379
v -0.39518174 0.37932735 1.42264103
v -0.31489643 0.39547526 1.48167252
v -0.31988504 0.4743267 1.41760551
v -0.35321179 0.49830642 1.30756723
v -0.41983196 0.44536763 1.31239008
v -0.46605837 0.36798712 1.32621002
v -0.53295999 0.44721907 0.83142018
v -0.39457085 0.50124567 0.7914915
v -0.41443079 0.51251083 0.75756371
v -0.42906114 0.51656436 0.74104869
v -0.56720811 0.45594418 0.7404688
v -0.59309053 0.37354359 0.83433765
v -0.64876949 0.39612466 0.69906711
v -0.67016184 0.29218298 0.73201912
v -0.61032676 0.29063436 0.83266747
v -0.74896574 0.32105851 0.59547072
v -0.74937355 0.27553319 0.58836978
v -0.74533063 0.34815552 0.59317809
v -0.26103633 0.56440705 0.69732886
v -0.14599582 0.59407073 0.65513581
v -0.23245477 0.62418943 0.63003331
v -0.29218134 0.57789105 0.68052947
v -0.10756571 0.6919943 0.56542223
v -0.15882644 0.70050633 0.56117618
v -0.19316622 0.70842999 0.55650651
v -0.45583409 0.3488889 0.56997305
v -0.50568902 0.3914442 0.61568898
v -0.42909887 0.4158568 0.61931502
v -0.31629529 0.47927323 0.54228031
v -0.34302452 0.34228032 0.44128817
v -0.22398485 0.48575434 0.43921619
v -0.17501352 0.42807558 0.33879563
v -0.20857615 0.37398415 0.34283906
v -0.25210142 0.54243844 0.50095218
v -0.27263009 0.33979904 0.31872409
v -0.86806654 0.33094641 0.45481255
v -0.94436156 0.39343795 0.34278452
v -0.97120094 0.35151061 0.31914427
v -1.01899075 0.2709091 0.25698384
v -0.95796126 0.18217064 0.33917394
v -0.8550955 0.17456854 0.46943762
v -0.94936496 0.06039936 0.40485647
v -0.88308656 0.10622049 0.51812672
v -1.00854063 0.09270151 0.27710208
v -0.26946437 0.55533713 0.07998129
v -0.34304302 0.56686645 0.01616092
v -0.30340758 0.49253991 -0.0138818
v -0.25253906 0.43530321 -0.01816409
v -0.22392936 0.46818777 0.05189512
v -0.21560627 0.52465575 0.12923649
v -0.48512578 0.31654548 0.08553826
v -0.41018763 0.2981736 0.14842096
v -0.37557742 0.29995989 0.07076645
v -0.36186659 0.30328396 0.00555603
v -0.45129957 0.33276975 -0.00863765
v -0.52547943 0.3504574 0.03437263
v -0.36733096 0.96449381 0.02459286
v -0.25854888 0.9679628 0.16585554
v -0.21435847 0.978612 0.15506416
v -0.12209435 0.9736641 0.15143254
v -0.16307416 0.9649946 -0.01062359
v -0.16785177 0.94458091 -0.12103404
v -0.32285863 0.94265008 -0.12314599
v -0.51398986 0.93834489 -0.09799344
v -0.52434188 0.93552798 -0.06244753
v -0.50736373 0.92102116 -0.15557222
v -0.29951351 0.2996453 0.02078508
v -0.25968036 0.30079224 0.0203663
v -0.28676676 0.30084851 -0.03785415
v -0.34708839 0.31784498 -0.07572466
v -0.35519677 0.30906698 -0.04078863
v -0.2823947 0.40848016 -0.05999167
v -0.30127704 0.38395258 -0.08476921
v -0.23740857 0.35186502 -0.05629082
v -0.20031034 0.35352513 -0.00190245
v -0.21726054 0.38887029 -0.00759319
v -1.07107174 0.26633799 0.00173081
v -1.04415142 0.37672063 -0.12067836
v -1.05410587 0.27989968 -0.25106075
v -1.03999054 0.18265575 -0.38183397
v -1.0497545 0.00893824 -0.30475315
v -1.07384324 0.0333449 0.07184592
v -1.06741571 0.16592054 0.15209963
v -0.89895343 0.09195911 -0.65875572
v -0.85597151 -0.03764168 -0.66307961
v -0.9370616 -0.07871307 -0.52504295
v -0.99621993 -0.06221036 -0.41896352
v -1.00628709 0.08451061 -0.47956153
v -0.7858361 -0.26650446 -0.51303774
v -0.87606298 -0.17544013 -0.51805585
v -0.80380374 -0.15430541 -0.63089644
v -0.71355187 -0.14153705 -0.72693508
v -0.67824715 -0.25337159 -0.6410942
v -0.67733466 -0.32793673 -0.53228992
v -0.365462 0.49429968 0.89065867
v -0.19126638 0.51557987 0.85427027
v -0.32679787 0.49796664 1.02799308
v -0.17433588 0.50904345 1.00492489
v 0 0.51751029 0.9947502
v 0 0.52176594 0.84596645
v 0 0.53006702 0.72913354
v 0 0.59307444 0.65559309
v 0 0.68177205 0.57270091
v 0 0.81122696 0.4627864
v -0.09370078 0.81197255 0.45998254
v 0 0.93190622 0.33128738
v -0.09969383 0.92753964 0.32607442
v -0.16377317 0.92646026 0.32411953
v -0.14657555 0.81380558 0.46001619
v -0.19957609 0.92005729 0.3283126
v -0.17589139 0.81248641 0.45991307
v -0.23441417 0.90323203 0.33554214
v -0.20920957 0.80303484 0.45466283
v -0.22654943 0.70840609 0.54598856
v -0.25480583 0.63406014 0.60877913
v -0.23542894 0.78494042 0.4406096
v -0.24209228 0.69256955 0.52290964
v -0.27059739 0.62459033 0.58312529
v -0.3261604 0.56689363 0.63413
v -0.31488123 0.58003282 0.65842407
v -0.24745768 0.67055189 0.49857065
v -0.27114984 0.60276389 0.55828028
v -0.32945469 0.54410249 0.60801821
v -0.43215134 0.47356134 0.66720408
v -0.43370783 0.49572041 0.68889385
v -0.26600253 0.57700938 0.53369915
v -0.32779571 0.51859736 0.58168625
v -0.43193009 0.44692742 0.64443981
v -0.52316999 0.4198386 0.63727152
v -0.53659725 0.44141048 0.65768992
v -0.61623579 0.42179474 0.61317169
v -0.63670694 0.42745503 0.64047086
v -0.55209541 0.45810192 0.6846742
v -0.59519511 0.40396562 0.59131085
v -0.67116445 0.39565098 0.52310967
v -0.69597423 0.40928649 0.54361587
v -0.57241803 0.37377256 0.57103788
v -0.64332526 0.37020701 0.49934333
v -0.71353215 0.39320457 0.41473028
v -0.7404173 0.41595447 0.43862977
v -0.51896351 0.30670541 0.52334171
v -0.59547418 0.31397795 0.45341515
v -0.67773228 0.34781315 0.37410774
v -0.74061101 0.40059489 0.28812277
v -0.76945483 0.44105929 0.32287696
v -0.5093047 0.29338601 0.33729469
v -0.59990072 0.32367938 0.28305766
v -0.67316269 0.35216108 0.21756902
v -0.70661753 0.42945966 0.14902056
v -0.76425564 0.47363495 0.20049911
v -0.53349179 0.31509393 0.17452684
v -0.59465307 0.34756621 0.11876739
v -0.62842047 0.40167555 0.06713209
v -0.64680552 0.45136529 0.01322322
v -0.72016292 0.50168263 0.078183
v -0.54193288 0.38124555 -0.00683024
v -0.54866433 0.41151294 -0.04906237
v -0.53823453 0.44910225 -0.08009104
v -0.63422697 0.50909614 -0.01996993
v -0.44936177 0.34774979 -0.04459602
v -0.44396957 0.36743336 -0.07960781
v -0.43217802 0.38796269 -0.1060983
v -0.40646231 0.41739556 -0.11810936
v -0.50635337 0.48941743 -0.08691839
v -0.33476084 0.33391022 -0.09602966
v -0.31936964 0.35597246 -0.0972309
v -0.37735471 0.45011267 -0.09766509
v -0.26447218 0.30533802 -0.05323379
v -0.24541436 0.31766155 -0.06269527
v -0.22550746 0.30811512 0.01202409
v -0.20155187 0.3218263 0.00333164
v -0.20805308 0.31952443 0.10369673
v -0.17949867 0.34701237 0.09373778
v -0.17708149 0.38537797 0.08274295
v -0.16476149 0.38204619 0.20332938
v -0.158735 0.42928734 0.18681518
v -0.17907238 0.47940063 0.16232098
v -0.19589902 0.42616692 0.06867609
v -0.16710969 0.49082014 0.30555096
v -0.18330059 0.55617457 0.25473079
v -0.2331403 0.60621041 0.19626881
v -0.22456036 0.63438487 0.32516595
v -0.26929304 0.68526291 0.25141906
v -0.32695734 0.71567195 0.17319785
v -0.29861277 0.63243019 0.13099364
v -0.40588519 0.72326588 0.09001365
v -0.37731415 0.64392077 0.05926189
v -0.49750149 0.70833194 0.03242663
v -0.46099925 0.63043522 0.0041077
v -0.41079887 0.55496144 -0.03780875
v -0.53177952 0.5975607 -0.02127099
v -0.46488043 0.52477359 -0.07253465
v -0.34881156 0.47375637 -0.06183623
v -0.5901438 0.55613678 -0.02644314
v -0.57824498 0.67575722 0.01045598
v -0.64482903 0.6304183 0.01210411
v -0.69512546 0.57011413 0.03547041
v -0.68636077 0.68654209 0.02782792
v -0.73905652 0.61892569 0.0640056
v -0.76780945 0.54709929 0.11938343
v -0.77173286 0.65323275 0.08028317
v -0.79965245 0.57896298 0.14268471
v -0.79683136 0.50601065 0.22752788
v -0.82541704 0.60197728 0.1582556
v -0.82245701 0.53004103 0.24684274
v -0.79394769 0.46590203 0.34419772
v -0.85274368 0.54985088 0.2629224
v -0.82600891 0.48098692 0.36138898
v -0.76959604 0.42891499 0.45869302
v -0.86251908 0.47804591 0.36883807
v -0.80286341 0.42456778 0.47367739
v -0.72381776 0.40406832 0.56492716
v -0.83149558 0.39386925 0.47401028
v -0.73964643 0.37868109 0.58192718
v -0.64726674 0.41936814 0.66672509
v -0.56269848 0.46265342 0.71251875
v -0.43479329 0.51376748 0.71671003
v -0.8510763 0.36481955 0.46674981
v -0.92049408 0.42716524 0.35581198
v -0.89528715 0.45529499 0.36496049
v -0.9278323 0.53173017 0.25457292
v -0.9532215 0.50524729 0.23659603
v -0.89322853 0.55154079 0.26666253
v -0.89814239 0.62197136 0.16207605
v -0.93016403 0.60702616 0.14336565
v -0.85956019 0.62136095 0.16829806
v -0.83603704 0.69479763 0.0890318
v -0.8676325 0.69763606 0.06949707
v -0.80141943 0.67777586 0.09040738
v -0.74637389 0.75919491 0.0412617
v -0.77360671 0.7849341 0.03234235
v -0.71762239 0.72505784 0.03635171
v -0.63130265 0.78448593 0.01832296
v -0.64955073 0.82156378 0.01408235
v -0.60995322 0.73987603 0.01797894
v -0.51847779 0.77191692 0.04180277
v -0.53061294 0.81981349 0.04028299
v -0.42265763 0.8366844 0.09987508
v -0.42230564 0.8776378 0.09483763
v -0.53811806 0.86083704 0.03212014
v -0.41834488 0.78794354 0.09995339
v -0.33452937 0.78598004 0.19181188
v -0.33370184 0.83288252 0.19884286
v -0.27695977 0.79512327 0.30554834
v -0.27149474 0.83409494 0.32023623
v -0.32869321 0.87494278 0.20211949
v -0.28061127 0.75224065 0.28781521
v -0.25036248 0.68817198 0.36887157
v -0.25692185 0.72581851 0.39735338
v -0.24405019 0.64543092 0.47382819
v -0.25177776 0.75671988 0.42025768
v -0.23216277 0.61384534 0.44374948
v -0.20977823 0.55962562 0.39270618
v -0.25903582 0.87394446 0.33287057
v -0.29059195 0.94775122 0.18615046
v -0.31641918 0.91677236 0.19953763
v -0.39528313 0.94740158 0.05637047
v -0.41466099 0.91767424 0.08204182
v -0.53576302 0.92117673 -0.02347605
v -0.53961479 0.89809316 0.0106445
v -0.67985725 0.87102019 -0.03846716
v -0.66850239 0.85485094 -0.00472416
v -0.79608905 0.79242986 0.00284949
v -0.68454259 0.87274026 -0.07791736
v -0.81118732 0.78886377 -0.03157853
v -0.89220649 0.68869149 0.04211317
v -0.82237452 0.77854043 -0.06668605
v -0.90931302 0.6737554 0.01297721
v -0.95274382 0.58361762 0.11966472
v -0.91893416 0.65189117 -0.01982346
v -0.96925813 0.55653417 0.0915162
v -0.97435271 0.47489118 0.21320757
v -0.98639231 0.51939851 0.05184823
v -0.99817931 0.43488124 0.17870183
v -1.01146507 0.46313387 -0.0133023
v -1.03240108 0.36869499 0.11272186
v -0.9327532 0.56786876 -0.12844564
v -0.95766383 0.5000385 -0.23746596
v -0.925619 0.62005621 -0.06141486
v -0.8238058 0.72586536 -0.15160371
v -0.81509786 0.66642248 -0.22395268
v -0.82696735 0.7601298 -0.10284828
v -0.68425512 0.85142004 -0.15235434
v -0.67771595 0.81535279 -0.20733389
v -0.68561953 0.86649179 -0.11370185
v -0.50126439 0.87464338 -0.22673992
v -0.49563986 0.81553775 -0.33338695
v -0.66308569 0.74915194 -0.29103305
v -0.4957571 0.75351464 -0.47640231
v -0.66466611 0.68784856 -0.42117118
v -0.82419198 0.60137587 -0.34141442
v -0.66956621 0.61601358 -0.56268352
v -0.83210516 0.53300553 -0.47410467
v -0.971978 0.42188784 -0.36761057
v -0.82772684 0.44233176 -0.60360914
v -0.96013307 0.33160904 -0.49328273
v -0.81742256 0.31875619 -0.71193349
v -0.93464046 0.22646023 -0.59470236
v -0.7969442 0.15984988 -0.77643895
v -0.6672185 0.20181049 -0.88225829
v -0.63763332 0.02159812 -0.87608033
v -0.75943285 -0.00110984 -0.77731353
v -0.67710971 0.37607926 -0.81674933
v -0.51654255 0.40989249 -0.89576774
v -0.51253414 0.22551412 -0.96331495
v -0.67375308 0.51624876 -0.70185071
v -0.51042777 0.56307727 -0.77628374
v -0.34323644 0.58842659 -0.82211792
v -0.34949842 0.4286265 -0.94310987
v -0.50253683 0.67256385 -0.6290012
v -0.3366082 0.70879101 -0.67185014
v -0.16870978 0.72723615 -0.69786959
v -0.17387622 0.59930962 -0.84767961
v -0.33439204 0.79666566 -0.51389777
v -0.17097231 0.82141912 -0.54109793
v 0 0.82879453 -0.551656
v 0 0.73294854 -0.70714873
v -0.3292033 0.8567807 -0.36033618
v -0.16894239 0.87963002 -0.3887138
v 0 0.8855226 -0.4040991
v -0.16663098 0.91404467 -0.24800412
v 0 0.9197824 -0.25854671
v 0 0.94939631 -0.11039969
v 0 0.96077424 -0.04081609
v 0 0.97745406 0.14849996
v -0.32306057 0.89961099 -0.23181445
v 0 0.59976035 -0.85674488
v 0 0.44278782 -0.97574222
v -0.17959304 0.43961146 -0.96802759
v 0 0.25990662 -1.05445027
v -0.17697913 0.25174444 -1.04506444
v -0.34649196 0.23868794 -1.01558756
v -0.16736421 0.04399073 -1.05157518
v -0.3329992 0.03751399 -1.01510083
v -0.49306285 0.03301313 -0.95638752
v -0.31531542 -0.14628137 -0.94025373
v -0.46461719 -0.1382486 -0.88360023
v -0.5988155 -0.13617889 -0.81116437
v -0.43727332 -0.28176924 -0.76573604
v -0.56519651 -0.26729664 -0.70658427
v -0.42043912 -0.38773444 -0.61788111
v -0.55309885 -0.36411646 -0.57309103
v -0.42049345 -0.45304253 -0.45795691
v -0.5607379 -0.42460236 -0.42946469
v -0.70000791 -0.37313866 -0.40469688
v -0.58023488 -0.4487977 -0.27628383
v -0.72867649 -0.38742405 -0.26653865
v -0.86874836 -0.29458382 -0.26353797
v -0.83007192 -0.29058286 -0.39371514
v -0.98173058 -0.1678677 -0.27094727
v -0.93390542 -0.18301017 -0.39767551
v -0.89451128 -0.27987232 -0.12227612
v -1.01743459 -0.13599953 -0.12550252
v -0.90690058 -0.26317918 0.03142139
v -1.01483881 -0.13663244 0.04627423
v -0.90117919 -0.24832737 0.19144351
v -0.98649197 -0.13465163 0.21574884
v -1.02273976 -0.00848201 0.24383033
v -0.93049454 -0.12163886 0.37384524
v -0.95741272 -0.02355692 0.39316868
v -0.86609512 -0.08839705 0.52769583
v -0.89045065 0.00325306 0.53245252
v -0.81119751 -0.05118243 0.65478026
v -0.82553756 0.0520538 0.6552214
v -0.80428785 0.15117263 0.63350284
v -0.75965416 0.09071682 0.76438891
v -0.72793543 0.17748931 0.74621611
v -0.67930758 0.22760452 0.72587949
v -0.75613349 0.21405763 0.59924131
v -0.65522617 0.18510639 0.8480755
v -0.61064404 0.22185891 0.82550829
v -0.59810692 0.19331011 0.96076101
v -0.55998385 0.24078178 0.94331044
v -0.57599121 0.29967379 0.94579142
v -0.54311007 0.25582689 1.09114182
v -0.54908776 0.32610437 1.08798396
v -0.51740264 0.41449976 1.07602357
v -0.55555337 0.38704913 0.94186222
v -0.43973887 0.47652885 1.05318725
v -0.48869049 0.46097019 0.92250561
v -0.46988013 0.43497797 1.20694637
v -0.3921287 0.48669296 1.18745863
v -0.29038003 0.51102209 1.17200875
v -0.25954031 0.5344938 1.30167079
v -0.14282502 0.5552259 1.29418695
v -0.16257728 0.52137988 1.15797579
v 0 0.5710324 1.31053876
v 0 0.52900916 1.148476
v -0.12664064 0.53511285 1.43182361
v 0 0.53878498 1.44418335
v -0.11286783 0.42722466 1.54812037
v 0 0.42425417 1.56359422
v -0.11884542 0.28998991 1.60084354
v 0 0.2848517 1.6264441
v -0.12749764 0.18697162 1.6304841
v 0 0.17981156 1.63780856
v -0.14405211 0.11410117 1.70053374
v 0 0.10594441 1.71880376
v -0.15458048 0.02377616 1.74884569
v 0 0.01861531 1.76415944
v -0.15424029 -0.07899513 1.75079536
v 0 -0.08462882 1.76917505
v -0.14332331 -0.16766157 1.69174957
v 0 -0.18825101 1.68955516
v -0.13056641 -0.27499607 1.58167314
v 0 -0.29038682 1.57285881
v -0.13050432 -0.35523507 1.4330939
v 0 -0.36359992 1.42779076
v -0.13494621 -0.38626268 1.28292965
v 0 -0.39053764 1.2810533
v -0.14255464 -0.38272634 1.13127958
v 0 -0.38452896 1.12705159
v -0.14694194 -0.36868816 0.99328476
v 0 -0.3712643 0.99774712
v -0.14584134 -0.35772195 0.85602361
v 0 -0.36091473 0.85418874
v -0.147641 -0.35449731 0.71554094
v 0 -0.35820484 0.71371513
v -0.14780725 -0.36752826 0.57462602
v 0 -0.37187838 0.57082998
v -0.1538316 -0.39872393 0.43599444
v 0 -0.40368077 0.43253615
v -0.15902249 -0.44170975 0.30160653
v 0 -0.44746524 0.29785314
v -0.16160859 -0.4827429 0.16621673
v 0 -0.48688635 0.16336266
v -0.16236524 -0.50503325 0.02248109
v 0 -0.50885963 0.02370392
v -0.15733428 -0.51303571 -0.12879547
v 0 -0.51679396 -0.1219016
v -0.1472361 -0.50848424 -0.2934879
v 0 -0.51270502 -0.28427752
v -0.13903833 -0.48461705 -0.47674587
v 0 -0.49032622 -0.47284755
v -0.13769333 -0.42429369 -0.66991275
v 0 -0.42999744 -0.67529797
v -0.14893548 -0.31430533 -0.84631854
v 0 -0.31509703 -0.85816121
v -0.15895976 -0.15404678 -0.98164659
v 0 -0.15227003 -0.99756074
v 0 0.05141126 -1.06470835
v -0.29690042 -0.29905569 -0.81436324
v -0.28024771 -0.40805146 -0.65243059
v -0.27946704 -0.47024372 -0.47507974
v -0.29055312 -0.49809247 -0.29891946
v -0.43316128 -0.48109933 -0.28989237
v -0.30469155 -0.50180822 -0.13191692
v -0.45099848 -0.48094776 -0.12810236
v -0.60260558 -0.44380861 -0.12413392
v -0.46564722 -0.46911034 0.0248166
v -0.62087088 -0.42705735 0.02382252
v -0.77074933 -0.35760086 0.02396105
v -0.7538008 -0.37710657 -0.12266972
v -0.62941914 -0.40097233 0.16982559
v -0.77532213 -0.33628571 0.1754152
v -0.62168699 -0.35925805 0.31301754
v -0.75993049 -0.30411267 0.33061754
v -0.86736333 -0.22055895 0.3528355
v -0.72803694 -0.26896396 0.48458027
v -0.81410044 -0.1844009 0.51025587
v -0.69087249 -0.23960548 0.62335658
v -0.76581716 -0.15350183 0.64124274
v -0.66499257 -0.21463038 0.75761681
v -0.72829645 -0.1196408 0.76542282
v -0.76034522 -0.01458167 0.76915848
v -0.69347447 -0.09035153 0.89577955
v -0.71394985 0.01759699 0.89003336
v -0.69929784 0.11705257 0.87507808
v -0.67622399 0.03994619 1.01537239
v -0.64951348 0.13651333 0.99069595
v -0.64596825 0.05693115 1.14995801
v -0.60663145 0.15404616 1.12244665
v -0.56135541 0.20299305 1.10079968
v -0.57228022 0.16323626 1.25425589
v -0.52599769 0.20823666 1.23020505
v -0.5251317 0.26584285 1.22484886
v -0.48626735 0.20947429 1.34908449
v -0.48360616 0.27771756 1.3389976
v -0.51742941 0.34946462 1.22031819
v -0.42176219 0.20302228 1.45040631
v -0.41949242 0.28750658 1.44167625
v -0.32997897 0.19094419 1.52746939
v -0.32789939 0.29201629 1.51819264
v -0.23319804 0.19139349 1.58691299
v -0.2292412 0.29673895 1.5686059
v -0.22246597 0.41431459 1.51957523
v -0.23122884 0.5114839 1.42830944
v -0.25999146 0.11831782 1.65381574
v -0.36505603 0.12767097 1.5890516
v -0.39622408 0.04191409 1.64147365
v -0.2811096 0.02830323 1.70749318
v -0.46376654 0.14304618 1.50181531
v -0.49871188 0.05497812 1.54524564
v -0.50179803 -0.05078958 1.56265664
v -0.39951837 -0.05775346 1.65572714
v -0.53811985 0.15987604 1.38515448
v -0.57737785 0.06640791 1.42297112
v -0.57696712 -0.04868238 1.44058823
v -0.61856651 0.06727616 1.28646135
v -0.61662006 -0.05221958 1.30428183
v -0.58313697 -0.16643211 1.31248843
v -0.50856548 -0.26840844 1.3146727
v -0.63890814 -0.05941727 1.16540229
v -0.60590481 -0.1762101 1.17416048
v -0.53766882 -0.28063717 1.17621064
v -0.42079544 -0.34755232 1.16611349
v -0.39510285 -0.33767673 1.30313944
v -0.62313205 -0.18537022 1.03561747
v -0.55224436 -0.2825776 1.03013742
v -0.4378362 -0.33852648 1.01729714
v -0.29719519 -0.3619107 0.99891573
v -0.28098306 -0.37615978 1.14452159
v -0.55712908 -0.28256145 0.88786602
v -0.43549633 -0.32559406 0.87620335
v -0.29533815 -0.34737521 0.86478078
v -0.43384087 -0.31668427 0.73230755
v -0.29589128 -0.34092679 0.72281026
v -0.44102779 -0.32494577 0.58518898
v -0.29863831 -0.35307899 0.57821369
v -0.45583719 -0.35395339 0.44382938
v -0.30581229 -0.38375967 0.44067156
v -0.4697375 -0.39872506 0.30649563
v -0.31386876 -0.42707714 0.30532151
v -0.47345936 -0.44431138 0.17059487
v -0.31687283 -0.47025021 0.16965001
v -0.31409522 -0.49282926 0.02384967
v -0.60001033 -0.31659027 0.45634067
v -0.57469809 -0.28966066 0.5997315
v -0.56052517 -0.28183791 0.74349767
v -0.64392894 -0.19637145 0.89615631
v -0.66220897 -0.06938868 1.02817225
v -0.26417255 -0.37272787 1.28793942
v -0.25350752 -0.33417874 1.43531429
v -0.24999226 -0.2562358 1.56884276
v -0.2631829 -0.15554349 1.66491222
v -0.28145837 -0.06658651 1.71196043
v -0.1968664 0.34889149 0.21173247
v -0.25511735 0.33104372 0.20678107
v -0.25121185 0.31454032 0.10556543
v -0.3050813 0.30650207 0.0992599
v -0.32449621 0.31362074 0.19063185
v -0.45404392 0.29440471 0.22995416
v -0.3575797 0.31917694 0.28281915
v -0.41773822 0.31722235 0.3882943
v 0.43252232 -0.20919984 1.5159707
v 0.3752816 0.43800205 1.3940165
v 0.56855762 0.44483387 0.76428622
v 0.64650541 0.37081408 0.73116701
v 0.1966373 0.5943855 0.65694856
v 0.40232309 0.38797202 0.57007449
v 0.28895786 0.41267314 0.46974229
v 0.88150864 0.2664465 0.42612099
v 0.9180876 0.12451754 0.40865016
v 0.26012551 0.5049498 0.03805001
v 0.44448894 0.31561204 0.03660886
v 0.31702005 0.97227716 -0.01320299
v 0.30844679 0.29924285 -0.02304327
v 0.24060744 0.3758246 -0.04604769
v 1.08355557 0.10231668 -0.12957392
v 0.96183222 0.01479319 -0.54456818
v 0.75558131 -0.23327544 -0.59400069
v 0.20106922 0.53780466 0.72985661
v 0.35645091 -0.23375684 1.54569542
v 0.37350755 -0.14904095 1.61856019
v 0.46737167 -0.14481735 1.54499423
v 0.53843265 -0.15407933 1.43951702
v 0.46787232 -0.24103698 1.43668448
v 0.3674947 -0.3005228 1.43520379
v 0.39518174 0.37932735 1.42264103
v 0.31489643 0.39547526 1.48167252
v 0.31988504 0.4743267 1.41760551
v 0.35321179 0.49830642 1.30756723
v 0.41983196 0.44536763 1.31239008
v 0.46605837 0.36798712 1.32621002
v 0.53295999 0.44721907 0.83142018
v 0.39457085 0.50124567 0.7914915
v 0.41443079 0.51251083 0.75756371
v 0.42906114 0.51656436 0.74104869
v 0.56720811 0.45594418 0.7404688
v 0.59309053 0.37354359 0.83433765
v 0.64876949 0.39612466 0.69906711
v 0.67016184 0.29218298 0.73201912
v 0.61032676 0.29063436 0.83266747
v 0.74896574 0.32105851 0.59547072
v 0.74937355 0.27553319 0.58836978
v 0.74533063 0.34815552 0.59317809
v 0.26103633 0.56440705 0.69732886
v 0.14599582 0.59407073 0.65513581
v 0.23245477 0.62418943 0.63003331
v 0.29218134 0.57789105 0.68052947
v 0.10756571 0.6919943 0.56542223
v 0.15882644 0.70050633 0.56117618
v 0.19316622 0.70842999 0.55650651
v 0.45583409 0.3488889 0.56997305
v 0.50568902 0.3914442 0.61568898
v 0.42909887 0.4158568 0.61931502
v 0.31629529 0.47927323 0.54228031
v 0.34302452 0.34228032 0.44128817
v 0.22398485 0.48575434 0.43921619
v 0.17501352 0.42807558 0.33879563
v 0.20857615 0.37398415 0.34283906
v 0.25210142 0.54243844 0.50095218
v 0.27263009 0.33979904 0.31872409
v 0.86806654 0.33094641 0.45481255
v 0.94436156 0.39343795 0.34278452
v 0.97120094 0.35151061 0.31914427
v 1.01899075 0.2709091 0.25698384
v 0.95796126 0.18217064 0.33917394
v 0.8550955 0.17456854 0.46943762
v 0.94936496 0.06039936 0.40485647
v 0.88308656 0.10622049 0.51812672
v 1.00854063 0.09270151 0.27710208
v 0.26946437 0.55533713 0.07998129
v 0.34304302 0.56686645 0.01616092
v 0.30340758 0.49253991 -0.0138818
v 0.25253906 0.43530321 -0.01816409
v 0.22392936 0.46818777 0.05189512
v 0.21560627 0.52465575 0.12923649
v 0.48512578 0.31654548 0.08553826
v 0.41018763 0.2981736 0.14842096
v 0.37557742 0.29995989 0.07076645
v 0.36186659 0.30328396 0.00555603
v 0.45129957 0.33276975 -0.00863765
v 0.52547943 0.3504574 0.03437263
v 0.36733096 0.96449381 0.02459286
v 0.25854888 0.9679628 0.16585554
v 0.21435847 0.978612 0.15506416
v 0.12209435 0.9736641 0.15143254
v 0.16307416 0.9649946 -0.01062359
v 0.16785177 0.94458091 -0.12103404
v 0.32285863 0.94265008 -0.12314599
v 0.51398986 0.93834489 -0.09799344
v 0.52434188 0.93552798 -0.06244753
v 0.50736373 0.92102116 -0.15557222
v 0.29951351 0.2996453 0.02078508
v 0.25968036 0.30079224 0.0203663
v 0.28676676 0.30084851 -0.03785415
v 0.34708839 0.31784498 -0.07572466
v 0.35519677 0.30906698 -0.04078863
v 0.2823947 0.40848016 -0.05999167
v 0.30127704 0.38395258 -0.08476921
v 0.23740857 0.35186502 -0.05629082
v 0.20031034 0.35352513 -0.00190245
v 0.21726054 0.38887029 -0.00759319
v 1.07107174 0.26633799 0.00173081
v 1.04415142 0.37672063 -0.12067836
v 1.05410587 0.27989968 -0.25106075
v 1.03999054 0.18265575 -0.38183397
v 1.0497545 0.00893824 -0.30475315
v 1.07384324 0.0333449 0.07184592
v 1.06741571 0.16592054 0.15209963
v 0.89895343 0.09195911 -0.65875572
v 0.85597151 -0.03764168 -0.66307961
v 0.9370616 -0.07871307 -0.52504295
v 0.99621993 -0.06221036 -0.41896352
v 1.00628709 0.08451061 -0.47956153
v 0.7858361 -0.26650446 -0.51303774
v 0.87606298 -0.17544013 -0.51805585
v 0.80380374 -0.15430541 -0.63089644
v 0.71355187 -0.14153705 -0.72693508
v 0.67824715 -0.25337159 -0.6410942
v 0.67733466 -0.32793673 -0.53228992
v 0.365462 0.49429968 0.89065867
v 0.19126638 0.51557987 0.85427027
v 0.32679787 0.49796664 1.02799308
v 0.17433588 0.50904345 1.00492489
v 0.09370078 0.81197255 0.45998254
v 0.09969383 0.92753964 0.32607442
v 0.16377317 0.92646026 0.32411953
v 0.14657555 0.81380558 0.46001619
v 0.19957609 0.92005729 0.3283126
v 0.17589139 0.81248641 0.45991307
v 0.23441417 0.90323203 0.33554214
v 0.20920957 0.80303484 0.45466283
v 0.22654943 0.70840609 0.54598856
v 0.25480583 0.63406014 0.60877913
v 0.23542894 0.78494042 0.4406096
v 0.24209228 0.69256955 0.52290964
v 0.27059739 0.62459033 0.58312529
v 0.3261604 0.56689363 0.63413
v 0.31488123 0.58003282 0.65842407
v 0.24745768 0.67055189 0.49857065
v 0.27114984 0.60276389 0.55828028
v 0.32945469 0.54410249 0.60801821
v 0.43215134 0.47356134 0.66720408
v 0.43370783 0.49572041 0.68889385
v 0.26600253 0.57700938 0.53369915
v 0.32779571 0.51859736 0.58168625
v 0.43193009 0.44692742 0.64443981
v 0.52316999 0.4198386 0.63727152
v 0.53659725 0.44141048 0.65768992
v 0.61623579 0.42179474 0.61317169
v 0.63670694 0.42745503 0.64047086
v 0.55209541 0.45810192 0.6846742
v 0.59519511 0.40396562 0.59131085
v 0.67116445 0.39565098 0.52310967
v 0.69597423 0.40928649 0.54361587
v 0.57241803 0.37377256 0.57103788
v 0.64332526 0.37020701 0.49934333
v 0.71353215 0.39320457 0.41473028
v 0.7404173 0.41595447 0.43862977
v 0.51896351 0.30670541 0.52334171
v 0.59547418 0.31397795 0.45341515
v 0.67773228 0.34781315 0.37410774
v 0.74061101 0.40059489 0.28812277
v 0.76945483 0.44105929 0.32287696
v 0.5093047 0.29338601 0.33729469
v 0.59990072 0.32367938 0.28305766
v 0.67316269 0.35216108 0.21756902
v 0.70661753 0.42945966 0.14902056
v 0.76425564 0.47363495 0.20049911
v 0.53349179 0.31509393 0.17452684
v 0.59465307 0.34756621 0.11876739
v 0.62842047 0.40167555 0.06713209
v 0.64680552 0.45136529 0.01322322
v 0.72016292 0.50168263 0.078183
v 0.54193288 0.38124555 -0.00683024
v 0.54866433 0.41151294 -0.04906237
v 0.53823453 0.44910225 -0.08009104
v 0.63422697 0.50909614 -0.01996993
v 0.44936177 0.34774979 -0.04459602
v 0.44396957 0.36743336 -0.07960781
v 0.43217802 0.38796269 -0.1060983
v 0.40646231 0.41739556 -0.11810936
v 0.50635337 0.48941743 -0.08691839
v 0.33476084 0.33391022 -0.09602966
v 0.31936964 0.35597246 -0.0972309
v 0.37735471 0.45011267 -0.09766509
v 0.26447218 0.30533802 -0.05323379
v 0.24541436 0.31766155 -0.06269527
v 0.22550746 0.30811512 0.01202409
v 0.20155187 0.3218263 0.00333164
v 0.20805308 0.31952443 0.10369673
v 0.17949867 0.34701237 0.09373778
v 0.17708149 0.38537797 0.08274295
v 0.16476149 0.38204619 0.20332938
v 0.158735 0.42928734 0.18681518
v 0.17907238 0.47940063 0.16232098
v 0.19589902 0.42616692 0.06867609
v 0.16710969 0.49082014 0.30555096
v 0.18330059 0.55617457 0.25473079
v 0.2331403 0.60621041 0.19626881
v 0.22456036 0.63438487 0.32516595
v 0.26929304 0.68526291 0.25141906
v 0.32695734 0.71567195 0.17319785
v 0.29861277 0.63243019 0.13099364
v 0.40588519 0.72326588 0.09001365
v 0.37731415 0.64392077 0.05926189
v 0.49750149 0.70833194 0.03242663
v 0.46099925 0.63043522 0.0041077
v 0.41079887 0.55496144 -0.03780875
v 0.53177952 0.5975607 -0.02127099
v 0.46488043 0.52477359 -0.07253465
v 0.34881156 0.47375637 -0.06183623
v 0.5901438 0.55613678 -0.02644314
v 0.57824498 0.67575722 0.01045598
v 0.64482903 0.6304183 0.01210411
v 0.69512546 0.57011413 0.03547041
v 0.68636077 0.68654209 0.02782792
v 0.73905652 0.61892569 0.0640056
v 0.76780945 0.54709929 0.11938343
v 0.77173286 0.65323275 0.08028317
v 0.79965245 0.57896298 0.14268471
v 0.79683136 0.50601065 0.22752788
v 0.82541704 0.60197728 0.1582556
v 0.82245701 0.53004103 0.24684274
v 0.79394769 0.46590203 0.34419772
v 0.85274368 0.54985088 0.2629224
v 0.82600891 0.48098692 0.36138898
v 0.76959604 0.42891499 0.45869302
v 0.86251908 0.47804591 0.36883807
v 0.80286341 0.42456778 0.47367739
v 0.72381776 0.40406832 0.56492716
v 0.83149558 0.39386925 0.47401028
v 0.73964643 0.37868109 0.58192718
v 0.64726674 0.41936814 0.66672509
v 0.56269848 0.46265342 0.71251875
v 0.43479329 0.51376748 0.71671003
v 0.8510763 0.36481955 0.46674981
v 0.92049408 0.42716524 0.35581198
v 0.89528715 0.45529499 0.36496049
v 0.9278323 0.53173017 0.25457292
v 0.9532215 0.50524729 0.23659603
v 0.89322853 0.55154079 0.26666253
v 0.89814239 0.62197136 0.16207605
v 0.93016403 0.60702616 0.14336565
v 0.85956019 0.62136095 0.16829806
v 0.83603704 0.69479763 0.0890318
v 0.8676325 0.69763606 0.06949707
v 0.80141943 0.67777586 0.09040738
v 0.74637389 0.75919491 0.0412617
v 0.77360671 0.7849341 0.03234235
v 0.71762239 0.72505784 0.03635171
v 0.63130265 0.78448593 0.01832296
v 0.64955073 0.82156378 0.01408235
v 0.60995322 0.73987603 0.01797894
v 0.51847779 0.77191692 0.04180277
v 0.53061294 0.81981349 0.04028299
v 0.42265763 0.8366844 0.09987508
v 0.42230564 0.8776378 0.09483763
v 0.53811806 0.86083704 0.03212014
v 0.41834488 0.78794354 0.09995339
v 0.33452937 0.78598004 0.19181188
v 0.33370184 0.83288252 0.19884286
v 0.27695977 0.79512327 0.30554834
v 0.27149474 0.83409494 0.32023623
v 0.32869321 0.87494278 0.20211949
v 0.28061127 0.75224065 0.28781521
v 0.25036248 0.68817198 0.36887157
v 0.25692185 0.72581851 0.39735338
v 0.24405019 0.64543092 0.47382819
v 0.25177776 0.75671988 0.42025768
v 0.23216277 0.61384534 0.44374948
v 0.20977823 0.55962562 0.39270618
v 0.25903582 0.87394446 0.33287057
v 0.29059195 0.94775122 0.18615046
v 0.31641918 0.91677236 0.19953763
v 0.39528313 0.94740158 0.05637047
v 0.41466099 0.91767424 0.08204182
v 0.53576302 0.92117673 -0.02347605
v 0.53961479 0.89809316 0.0106445
v 0.67985725 0.87102019 -0.03846716
v 0.66850239 0.85485094 -0.00472416
v 0.79608905 0.79242986 0.00284949
v 0.68454259 0.87274026 -0.07791736
v 0.81118732 0.78886377 -0.03157853
v 0.89220649 0.68869149 0.04211317
v 0.82237452 0.77854043 -0.06668605
v 0.90931302 0.6737554 0.01297721
v 0.95274382 0.58361762 0.11966472
v 0.91893416 0.65189117 -0.01982346
v 0.96925813 0.55653417 0.0915162
v 0.97435271 0.47489118 0.21320757
v 0.98639231 0.51939851 0.05184823
v 0.99817931 0.43488124 0.17870183
v 1.01146507 0.46313387 -0.0133023
v 1.03240108 0.36869499 0.11272186
v 0.9327532 0.56786876 -0.12844564
v 0.95766383 0.5000385 -0.23746596
v 0.925619 0.62005621 -0.06141486
v 0.8238058 0.72586536 -0.15160371
v 0.81509786 0.66642248 -0.22395268
v 0.82696735 0.7601298 -0.10284828
v 0.68425512 0.85142004 -0.15235434
v 0.67771595 0.81535279 -0.20733389
v 0.68561953 0.86649179 -0.11370185
v 0.50126439 0.87464338 -0.22673992
v 0.49563986 0.81553775 -0.33338695
v 0.66308569 0.74915194 -0.29103305
v 0.4957571 0.75351464 -0.47640231
v 0.66466611 0.68784856 -0.42117118
v 0.82419198 0.60137587 -0.34141442
v 0.66956621 0.61601358 -0.56268352
v 0.83210516 0.53300553 -0.47410467
v 0.971978 0.42188784 -0.36761057
v 0.82772684 0.44233176 -0.60360914
v 0.96013307 0.33160904 -0.49328273
v 0.81742256 0.31875619 -0.71193349
v 0.93464046 0.22646023 -0.59470236
v 0.7969442 0.15984988 -0.77643895
v 0.6672185 0.20181049 -0.88225829
v 0.63763332 0.02159812 -0.87608033
v 0.75943285 -0.00110984 -0.77731353
v 0.67710971 0.37607926 -0.81674933
v 0.51654255 0.40989249 -0.89576774
v 0.51253414 0.22551412 -0.96331495
v 0.67375308 0.51624876 -0.70185071
v 0.51042777 0.56307727 -0.77628374
v 0.34323644 0.58842659 -0.82211792
v 0.34949842 0.4286265 -0.94310987
v 0.50253683 0.67256385 -0.6290012
v 0.3366082 0.70879101 -0.67185014
v 0.16870978 0.72723615 -0.69786959
v 0.17387622 0.59930962 -0.84767961
v 0.33439204 0.79666566 -0.51389777
v 0.17097231 0.82141912 -0.54109793
v 0.3292033 0.8567807 -0.36033618
v 0.16894239 0.87963002 -0.3887138
v 0.16663098 0.91404467 -0.24800412
v 0.32306057 0.89961099 -0.23181445
v 0.17959304 0.43961146 -0.96802759
v 0.17697913 0.25174444 -1.04506444
v 0.34649196 0.23868794 -1.01558756
v 0.16736421 0.04399073 -1.05157518
v 0.3329992 0.03751399 -1.01510083
v 0.49306285 0.03301313 -0.95638752
v 0.31531542 -0.14628137 -0.94025373
v 0.46461719 -0.1382486 -0.88360023
v 0.5988155 -0.13617889 -0.81116437
v 0.43727332 -0.28176924 -0.76573604
v 0.56519651 -0.26729664 -0.70658427
v 0.42043912 -0.38773444 -0.61788111
v 0.55309885 -0.36411646 -0.57309103
v 0.42049345 -0.45304253 -0.45795691
v 0.5607379 -0.42460236 -0.42946469
v 0.70000791 -0.37313866 -0.40469688
v 0.58023488 -0.4487977 -0.27628383
v 0.72867649 -0.38742405 -0.26653865
v 0.86874836 -0.29458382 -0.26353797
v 0.83007192 -0.29058286 -0.39371514
v 0.98173058 -0.1678677 -0.27094727
v 0.93390542 -0.18301017 -0.39767551
v 0.89451128 -0.27987232 -0.12227612
v 1.01743459 -0.13599953 -0.12550252
v 0.90690058 -0.26317918 0.03142139
v 1.01483881 -0.13663244 0.04627423
v 0.90117919 -0.24832737 0.19144351
v 0.98649197 -0.13465163 0.21574884
v 1.02273976 -0.00848201 0.24383033
v 0.93049454 -0.12163886 0.37384524
v 0.95741272 -0.02355692 0.39316868
v 0.86609512 -0.08839705 0.52769583
v 0.89045065 0.00325306 0.53245252
v 0.81119751 -0.05118243 0.65478026
v 0.82553756 0.0520538 0.6552214
v 0.80428785 0.15117263 0.63350284
v 0.75965416 0.09071682 0.76438891
v 0.72793543 0.17748931 0.74621611
v 0.67930758 0.22760452 0.72587949
v 0.75613349 0.21405763 0.59924131
v 0.65522617 0.18510639 0.8480755
v 0.61064404 0.22185891 0.82550829
v 0.59810692 0.19331011 0.96076101
v 0.55998385 0.24078178 0.94331044
v 0.57599121 0.29967379 0.94579142
v 0.54311007 0.25582689 1.09114182
v 0.54908776 0.32610437 1.08798396
v 0.51740264 0.41449976 1.07602357
v 0.55555337 0.38704913 0.94186222
v 0.43973887 0.47652885 1.05318725
v 0.48869049 0.46097019 0.92250561
v 0.46988013 0.43497797 1.20694637
v 0.3921287 0.48669296 1.18745863
v 0.29038003 0.51102209 1.17200875
v 0.25954031 0.5344938 1.30167079
v 0.14282502 0.5552259 1.29418695
v 0.16257728 0.52137988 1.15797579
v 0.12664064 0.53511285 1.43182361
v 0.11286783 0.42722466 1.54812037
v 0.11884542 0.28998991 1.60084354
v 0.12749764 0.18697162 1.6304841
v 0.14405211 0.11410117 1.70053374
v 0.15458048 0.02377616 1.74884569
v 0.15424029 -0.07899513 1.75079536
v 0.14332331 -0.16766157 1.69174957
v 0.13056641 -0.27499607 1.58167314
v 0.13050432 -0.35523507 1.4330939
v 0.13494621 -0.38626268 1.28292965
v 0.14255464 -0.38272634 1.13127958
v 0.14694194 -0.36868816 0.99328476
v 0.14584134 -0.35772195 0.85602361
v 0.147641 -0.35449731 0.71554094
v 0.14780725 -0.36752826 0.57462602
v 0.1538316 -0.39872393 0.43599444
v 0.15902249 -0.44170975 0.30160653
v 0.16160859 -0.4827429 0.16621673
v 0.16236524 -0.50503325 0.02248109
v 0.15733428 -0.51303571 -0.12879547
v 0.1472361 -0.50848424 -0.2934879
v 0.13903833 -0.48461705 -0.47674587
v 0.13769333 -0.42429369 -0.66991275
v 0.14893548 -0.31430533 -0.84631854
v 0.15895976 -0.15404678 -0.98164659
v 0.29690042 -0.29905569 -0.81436324
v 0.28024771 -0.40805146 -0.65243059
v 0.27946704 -0.47024372 -0.47507974
v 0.29055312 -0.49809247 -0.29891946
v 0.43316128 -0.48109933 -0.28989237
v 0.30469155 -0.50180822 -0.13191692
v 0.45099848 -0.48094776 -0.12810236
v 0.60260558 -0.44380861 -0.12413392
v 0.46564722 -0.46911034 0.0248166
v 0.62087088 -0.42705735 0.02382252
v 0.77074933 -0.35760086 0.02396105
v 0.7538008 -0.37710657 -0.12266972
v 0.62941914 -0.40097233 0.16982559
v 0.77532213 -0.33628571 0.1754152
v 0.62168699 -0.35925805 0.31301754
v 0.75993049 -0.30411267 0.33061754
v 0.86736333 -0.22055895 0.3528355
v 0.72803694 -0.26896396 0.48458027
v 0.81410044 -0.1844009 0.51025587
v 0.69087249 -0.23960548 0.62335658
v 0.76581716 -0.15350183 0.64124274
v 0.66499257 -0.21463038 0.75761681
v 0.72829645 -0.1196408 0.76542282
v 0.76034522 -0.01458167 0.76915848
v 0.69347447 -0.09035153 0.89577955
v 0.71394985 0.01759699 0.89003336
v 0.69929784 0.11705257 0.87507808
v 0.67622399 0.03994619 1.01537239
v 0.64951348 0.13651333 0.99069595
v 0.64596825 0.05693115 1.14995801
v 0.60663145 0.15404616 1.12244665
v 0.56135541 0.20299305 1.10079968
v 0.57228022 0.16323626 1.25425589
v 0.52599769 0.20823666 1.23020505
v 0.5251317 0.26584285 1.22484886
v 0.48626735 0.20947429 1.34908449
v 0.48360616 0.27771756 1.3389976
v 0.51742941 0.34946462 1.22031819
v 0.42176219 0.20302228 1.45040631
v 0.41949242 0.28750658 1.44167625
v 0.32997897 0.19094419 1.52746939
v 0.32789939 0.29201629 1.51819264
v 0.23319804 0.19139349 1.58691299
v 0.2292412 0.29673895 1.5686059
v 0.22246597 0.41431459 1.51957523
v 0.23122884 0.5114839 1.42830944
v 0.25999146 0.11831782 1.65381574
v 0.36505603 0.12767097 1.5890516
v 0.39622408 0.04191409 1.64147365
v 0.2811096 0.02830323 1.70749318
v 0.46376654 0.14304618 1.50181531
v 0.49871188 0.05497812 1.54524564
v 0.50179803 -0.05078958 1.56265664
v 0.39951837 -0.05775346 1.65572714
v 0.53811985 0.15987604 1.38515448
v 0.57737785 0.06640791 1.42297112
v 0.57696712 -0.04868238 1.44058823
v 0.61856651 0.06727616 1.28646135
v 0.61662006 -0.05221958 1.30428183
v 0.58313697 -0.16643211 1.31248843
v 0.50856548 -0.26840844 1.3146727
v 0.63890814 -0.05941727 1.16540229
v 0.60590481 -0.1762101 1.17416048
v 0.53766882 -0.28063717 1.17621064
v 0.42079544 -0.34755232 1.16611349
v 0.39510285 -0.33767673 1.30313944
v 0.62313205 -0.18537022 1.03561747
v 0.55224436 -0.2825776 1.03013742
v 0.4378362 -0.33852648 1.01729714
v 0.29719519 -0.3619107 0.99891573
v 0.28098306 -0.37615978 1.14452159
v 0.55712908 -0.28256145 0.88786602
v 0.43549633 -0.32559406 0.87620335
v 0.29533815 -0.34737521 0.86478078
v 0.43384087 -0.31668427 0.73230755
v 0.29589128 -0.34092679 0.72281026
v 0.44102779 -0.32494577 0.58518898
v 0.29863831 -0.35307899 0.57821369
v 0.45583719 -0.35395339 0.44382938
v 0.30581229 -0.38375967 0.44067156
v 0.4697375 -0.39872506 0.30649563
v 0.31386876 -0.42707714 0.30532151
v 0.47345936 -0.44431138 0.17059487
v 0.31687283 -0.47025021 0.16965001
v 0.31409522 -0.49282926 0.02384967
v 0.60001033 -0.31659027 0.45634067
v 0.57469809 -0.28966066 0.5997315
v 0.56052517 -0.28183791 0.74349767
v 0.64392894 -0.19637145 0.89615631
v 0.66220897 -0.06938868 1.02817225
v 0.26417255 -0.37272787 1.28793942
v 0.25350752 -0.33417874 1.43531429
v 0.24999226 -0.2562358 1.56884276
v 0.2631829 -0.15554349 1.66491222
v 0.28145837 -0.06658651 1.71196043
v 0.1968664 0.34889149 0.21173247
v 0.25511735 0.33104372 0.20678107
v 0.25121185 0.31454032 0.10556543
v 0.3050813 0.30650207 0.0992599
v 0.32449621 0.31362074 0.19063185
v 0.45404392 0.29440471 0.22995416
v 0.3575797 0.31917694 0.28281915
v 0.41773822 0.31722235 0.3882943
g Group38462
f 1 19 20 21
f 1 21 22 23
f 1 23 24 19
f 2 25 26 27
f 2 27 28 29
f 2 29 30 25
f 3 31 32 33
f 3 33 34 35
f 3 4 36 31
f 3 35 37 4
f 4 38 39 36
f 4 40 41 38
f 4 37 42 40
f 5 43 18 44
f 5 45 46 43
f 5 44 47 48
f 5 48 49 45
f 6 50 51 52
f 6 52 53 7
f 6 7 54 50
f 7 55 56 57
f 7 53 58 55
f 7 57 59 54
f 8 60 61 62
f 8 62 63 64
f 8 64 9 65
f 8 41 40 60
f 9 66 67 65
f 9 64 68 66
f 10 69 70 71
f 10 71 72 73
f 10 73 74 69
f 11 75 76 77
f 11 77 78 79
f 11 79 80 75
f 12 81 82 83
f 12 83 84 85
f 12 85 86 87
f 12 88 89 81
f 12 87 90 88
f 13 91 92 93
f 13 93 94 95
f 13 95 78 91
f 14 96 97 98
f 14 98 99 100
f 14 100 72 96
f 15 101 102 103
f 15 103 104 105
f 15 106 107 101
f 16 108 109 110
f 16 110 111 112
f 17 113 114 115
f 17 115 116 117
f 17 117 118 113
f 18 32 119 120
f 18 43 33 32
f 120 119 121 122
f 120 122 123 124
f 120 124 125 18
f 125 126 44 18
f 126 127 47 44
f 127 128 129 47
f 129 128 130 131
f 129 131 132 133
f 129 133 48 47
f 133 132 134 135
f 133 135 49 48
f 135 134 136 137
f 135 137 138 49
f 138 139 45 49
f 138 137 140 141
f 138 141 142 139
f 142 143 144 139
f 142 141 145 146
f 142 146 147 143
f 147 148 149 143
f 147 146 150 151
f 147 151 152 148
f 152 153 154 148
f 152 151 53 52
f 152 52 51 153
f 154 155 156 157
f 154 157 149 148
f 154 153 158 155
f 158 159 160 155
f 158 153 51 161
f 158 161 162 159
f 162 163 164 159
f 162 161 165 166
f 162 166 167 163
f 167 168 169 163
f 167 166 170 171
f 167 171 172 168
f 172 173 174 168
f 172 171 175 176
f 172 176 177 173
f 177 178 179 173
f 177 176 80 180
f 177 180 181 178
f 181 182 183 178
f 181 180 184 185
f 181 185 186 182
f 186 187 188 182
f 186 185 94 189
f 186 189 190 187
f 190 97 191 187
f 190 189 192 193
f 190 193 98 97
f 193 192 194 195
f 193 195 99 98
f 195 194 196 197
f 195 197 198 99
f 198 197 199 200
f 198 200 201 202
f 198 202 100 99
f 202 201 74 73
f 202 73 72 100
f 201 200 203 204
f 201 204 205 74
f 205 204 206 207
f 205 207 208 209
f 205 209 69 74
f 209 208 210 211
f 209 211 70 69
f 211 210 212 213
f 211 213 214 70
f 214 213 215 216
f 214 216 191 217
f 214 217 71 70
f 217 191 97 96
f 217 96 72 71
f 216 215 218 188
f 216 188 187 191
f 218 215 219 220
f 218 220 221 183
f 218 183 182 188
f 221 220 222 223
f 221 223 224 179
f 221 179 178 183
f 224 223 225 226
f 224 226 227 174
f 224 174 173 179
f 227 226 228 229
f 227 229 230 169
f 227 169 168 174
f 230 229 231 232
f 230 232 233 164
f 230 164 163 169
f 233 232 234 235
f 233 235 236 160
f 233 160 159 164
f 236 235 237 238
f 236 238 239 156
f 236 156 155 160
f 239 238 42 37
f 239 37 35 240
f 239 240 157 156
f 240 35 34 241
f 240 241 149 157
f 241 34 46 144
f 241 144 143 149
f 238 237 242 42
f 242 243 61 60
f 242 60 40 42
f 242 237 244 243
f 244 245 246 243
f 244 237 235 234
f 244 234 247 245
f 247 248 249 245
f 247 234 232 231
f 247 231 250 248
f 250 251 252 248
f 250 231 229 228
f 250 228 253 251
f 253 254 255 251
f 253 228 226 225
f 253 225 256 254
f 256 257 258 254
f 256 225 223 222
f 256 222 259 257
f 259 260 261 257
f 259 222 220 219
f 259 219 212 260
f 261 262 263 264
f 261 264 258 257
f 261 260 265 262
f 265 266 267 262
f 265 260 212 210
f 265 210 208 266
f 267 268 269 270
f 267 270 263 262
f 267 266 271 268
f 271 272 273 268
f 271 266 208 207
f 271 207 206 272
f 273 274 145 275
f 273 275 269 268
f 273 272 276 274
f 276 58 150 274
f 276 272 206 277
f 276 277 55 58
f 277 206 204 203
f 277 203 56 55
f 275 145 141 140
f 275 140 278 269
f 278 140 137 136
f 278 136 279 280
f 278 280 270 269
f 280 279 281 282
f 280 282 263 270
f 282 281 283 284
f 282 284 264 263
f 284 283 285 286
f 284 286 258 264
f 286 285 287 255
f 286 255 254 258
f 287 285 288 289
f 287 289 290 252
f 287 252 251 255
f 290 289 291 292
f 290 292 293 249
f 290 249 248 252
f 293 292 294 295
f 293 295 296 246
f 293 246 245 249
f 296 295 297 298
f 296 298 62 61
f 296 61 243 246
f 298 297 299 300
f 298 300 63 62
f 300 299 102 101
f 300 101 107 63
f 299 301 302 102
f 299 297 303 301
f 303 304 305 301
f 303 297 295 294
f 303 294 306 304
f 306 307 308 304
f 306 294 292 291
f 306 291 309 307
f 309 88 90 307
f 309 291 289 288
f 309 288 89 88
f 308 310 311 312
f 308 312 305 304
f 308 307 90 310
f 312 311 313 314
f 312 314 315 305
f 315 314 316 317
f 315 317 318 302
f 315 302 301 305
f 318 317 319 320
f 318 320 104 103
f 318 103 102 302
f 320 319 321 322
f 320 322 112 104
f 322 321 323 108
f 322 108 16 112
f 323 324 325 326
f 323 326 109 108
f 323 321 327 324
f 327 328 329 324
f 327 321 319 330
f 327 330 331 328
f 331 332 333 328
f 331 330 316 334
f 331 334 335 332
f 335 336 337 332
f 335 334 313 338
f 335 338 339 336
f 339 340 341 336
f 339 338 342 343
f 339 343 344 340
f 344 343 345 346
f 346 345 86 347
f 347 86 85 348
f 348 85 84 349
f 349 84 131 130
f 345 343 342 350
f 345 350 87 86
f 350 342 311 310
f 350 310 90 87
f 342 338 313 311
f 341 351 337 336
f 351 352 353 337
f 353 352 354 355
f 353 355 356 333
f 353 333 332 337
f 356 355 357 358
f 356 358 359 329
f 356 329 328 333
f 359 358 360 361
f 359 361 362 325
f 359 325 324 329
f 362 361 363 364
f 362 364 117 116
f 362 116 326 325
f 364 363 365 366
f 364 366 118 117
f 366 365 367 368
f 366 368 369 118
f 369 368 370 371
f 369 371 372 373
f 369 373 113 118
f 373 372 374 375
f 373 375 114 113
f 375 374 105 111
f 375 111 110 114
f 374 372 376 377
f 374 377 15 105
f 377 376 378 379
f 377 379 106 15
f 379 378 380 381
f 379 381 382 106
f 382 381 383 384
f 382 384 66 68
f 382 68 107 106
f 384 383 385 386
f 384 386 67 66
f 386 385 387 388
f 386 388 389 67
f 389 388 390 391
f 389 391 392 393
f 389 393 65 67
f 393 392 38 41
f 393 41 8 65
f 392 391 394 395
f 392 395 39 38
f 395 394 396 397
f 395 397 398 39
f 398 397 399 400
f 398 400 401 402
f 398 402 36 39
f 402 401 403 404
f 402 404 31 36
f 404 403 121 119
f 404 119 32 31
f 403 401 405 406
f 403 406 407 121
f 407 406 28 408
f 407 408 409 410
f 407 410 122 121
f 410 409 411 412
f 410 412 123 122
f 411 409 413 414
f 414 413 415 416
f 416 415 417 418
f 418 417 419 420
f 420 419 421 422
f 422 421 423 424
f 424 423 425 426
f 426 425 427 428
f 428 427 429 430
f 430 429 431 432
f 432 431 433 434
f 434 433 435 436
f 436 435 437 438
f 438 437 439 440
f 440 439 441 442
f 442 441 443 444
f 444 443 445 446
f 446 445 447 448
f 448 447 449 450
f 450 449 451 452
f 452 451 453 454
f 454 453 455 456
f 456 455 457 458
f 458 457 459 460
f 460 459 461 462
f 462 461 463 464
f 464 463 357 465
f 465 357 355 354
f 463 461 466 360
f 463 360 358 357
f 466 461 459 467
f 466 467 365 363
f 466 363 361 360
f 467 459 457 468
f 467 468 367 365
f 468 457 455 469
f 468 469 470 367
f 470 469 471 472
f 470 472 473 370
f 470 370 368 367
f 473 472 474 475
f 473 475 476 477
f 473 477 371 370
f 477 476 378 376
f 477 376 372 371
f 476 475 478 479
f 476 479 380 378
f 479 478 480 481
f 479 481 482 380
f 482 481 483 484
f 482 484 385 383
f 482 383 381 380
f 484 483 485 486
f 484 486 387 385
f 486 485 487 488
f 486 488 489 387
f 489 488 490 491
f 489 491 492 390
f 489 390 388 387
f 492 491 493 494
f 492 494 396 394
f 492 394 391 390
f 494 493 495 496
f 494 496 497 396
f 497 496 498 499
f 497 499 500 399
f 497 399 397 396
f 500 499 501 502
f 500 502 30 503
f 500 503 400 399
f 503 30 29 405
f 503 405 401 400
f 502 501 504 505
f 502 505 25 30
f 505 504 506 507
f 505 507 26 25
f 507 506 508 509
f 507 509 510 26
f 510 509 417 415
f 510 415 413 511
f 510 511 27 26
f 511 413 409 408
f 511 408 28 27
f 509 508 419 417
f 508 512 421 419
f 508 506 513 512
f 513 514 515 512
f 513 506 504 516
f 513 516 517 514
f 517 518 519 514
f 517 516 520 521
f 517 521 522 518
f 522 22 21 518
f 522 521 523 524
f 522 524 525 22
f 525 526 23 22
f 525 524 527 528
f 525 528 529 526
f 529 530 531 526
f 529 528 532 533
f 529 533 534 530
f 534 535 536 530
f 534 533 537 538
f 534 538 539 535
f 539 439 437 535
f 539 538 540 541
f 539 541 441 439
f 541 540 542 543
f 541 543 443 441
f 543 542 544 545
f 543 545 445 443
f 545 544 546 547
f 545 547 447 445
f 547 546 548 549
f 547 549 449 447
f 549 548 474 550
f 549 550 451 449
f 550 474 472 471
f 550 471 453 451
f 548 546 480 478
f 548 478 475 474
f 546 544 551 480
f 551 544 542 552
f 551 552 485 483
f 551 483 481 480
f 552 542 540 553
f 552 553 487 485
f 553 540 538 537
f 553 537 554 487
f 554 537 533 532
f 554 532 555 490
f 554 490 488 487
f 555 532 528 527
f 555 527 495 493
f 555 493 491 490
f 536 435 433 556
f 536 556 531 530
f 536 535 437 435
f 556 433 431 557
f 556 557 24 531
f 557 431 429 558
f 557 558 19 24
f 558 429 427 559
f 558 559 20 19
f 559 427 425 560
f 559 560 519 20
f 560 425 423 515
f 560 515 514 519
f 531 24 23 526
f 527 524 523 495
f 523 521 520 498
f 523 498 496 495
f 520 516 504 501
f 520 501 499 498
f 519 518 21 20
f 515 423 421 512
f 471 469 455 453
f 406 405 29 28
f 334 316 314 313
f 330 319 317 316
f 326 116 115 109
f 288 285 283 89
f 283 281 81 89
f 281 279 82 81
f 279 136 134 82
f 274 150 146 145
f 219 215 213 212
f 203 200 199 56
f 199 561 57 56
f 199 197 196 561
f 561 562 59 57
f 561 196 563 562
f 563 564 565 562
f 563 196 194 92
f 563 92 91 564
f 565 76 566 567
f 565 567 59 562
f 565 564 77 76
f 567 566 170 568
f 567 568 54 59
f 568 170 166 165
f 568 165 50 54
f 566 175 171 170
f 566 76 75 175
f 564 91 78 77
f 194 192 93 92
f 192 189 94 93
f 185 184 95 94
f 184 180 80 79
f 184 79 78 95
f 176 175 75 80
f 165 161 51 50
f 151 150 58 53
f 144 46 45 139
f 134 132 83 82
f 132 131 84 83
f 115 114 110 109
f 112 111 105 104
f 107 68 64 63
f 46 34 33 43
f 569 589 588 587
f 569 591 590 589
f 569 587 592 591
f 570 595 594 593
f 570 597 596 595
f 570 593 598 597
f 571 601 600 599
f 571 603 602 601
f 571 599 604 572
f 571 572 605 603
f 572 604 607 606
f 572 606 609 608
f 572 608 610 605
f 573 612 586 611
f 573 611 614 613
f 573 616 615 612
f 573 613 617 616
f 574 620 619 618
f 574 575 621 620
f 574 618 622 575
f 575 625 624 623
f 575 623 626 621
f 575 622 627 625
f 576 630 629 628
f 576 632 631 630
f 576 633 577 632
f 576 628 608 609
f 577 633 635 634
f 577 634 636 632
f 578 639 638 637
f 578 641 640 639
f 578 637 642 641
f 579 645 644 643
f 579 647 646 645
f 579 643 648 647
f 580 651 650 649
f 580 653 652 651
f 580 655 654 653
f 580 649 657 656
f 580 656 658 655
f 581 661 660 659
f 581 663 662 661
f 581 659 646 663
f 582 666 665 664
f 582 668 667 666
f 582 664 640 668
f 583 671 670 669
f 583 673 672 671
f 583 669 675 674
f 584 678 677 676
f 584 680 679 678
f 585 683 682 681
f 585 685 684 683
f 585 681 686 685
f 586 688 687 600
f 586 600 601 611
f 688 690 689 687
f 688 124 123 690
f 688 586 125 124
f 125 586 612 126
f 126 612 615 127
f 127 615 691 128
f 691 692 130 128
f 691 694 693 692
f 691 615 616 694
f 694 696 695 693
f 694 616 617 696
f 696 698 697 695
f 696 617 699 698
f 699 617 613 700
f 699 702 701 698
f 699 700 703 702
f 703 700 705 704
f 703 707 706 702
f 703 704 708 707
f 708 704 710 709
f 708 712 711 707
f 708 709 713 712
f 713 709 715 714
f 713 620 621 712
f 713 714 619 620
f 715 718 717 716
f 715 709 710 718
f 715 716 719 714
f 719 716 721 720
f 719 722 619 714
f 719 720 723 722
f 723 720 725 724
f 723 727 726 722
f 723 724 728 727
f 728 724 730 729
f 728 732 731 727
f 728 729 733 732
f 733 729 735 734
f 733 737 736 732
f 733 734 738 737
f 738 734 740 739
f 738 741 648 737
f 738 739 742 741
f 742 739 744 743
f 742 746 745 741
f 742 743 747 746
f 747 743 749 748
f 747 750 662 746
f 747 748 751 750
f 751 748 752 665
f 751 754 753 750
f 751 665 666 754
f 754 756 755 753
f 754 666 667 756
f 756 758 757 755
f 756 667 759 758
f 759 761 760 758
f 759 763 762 761
f 759 667 668 763
f 763 641 642 762
f 763 668 640 641
f 762 765 764 761
f 762 642 766 765
f 766 768 767 765
f 766 770 769 768
f 766 642 637 770
f 770 772 771 769
f 770 637 638 772
f 772 774 773 771
f 772 638 775 774
f 775 777 776 774
f 775 778 752 777
f 775 638 639 778
f 778 664 665 752
f 778 639 640 664
f 777 749 779 776
f 777 752 748 749
f 779 781 780 776
f 779 744 782 781
f 779 749 743 744
f 782 784 783 781
f 782 740 785 784
f 782 744 739 740
f 785 787 786 784
f 785 735 788 787
f 785 740 734 735
f 788 790 789 787
f 788 730 791 790
f 788 735 729 730
f 791 793 792 790
f 791 725 794 793
f 791 730 724 725
f 794 796 795 793
f 794 721 797 796
f 794 725 720 721
f 797 799 798 796
f 797 717 800 799
f 797 721 716 717
f 800 605 610 799
f 800 801 603 605
f 800 717 718 801
f 801 802 602 603
f 801 718 710 802
f 802 705 614 602
f 802 710 704 705
f 799 610 803 798
f 803 628 629 804
f 803 610 608 628
f 803 804 805 798
f 805 804 807 806
f 805 795 796 798
f 805 806 808 795
f 808 806 810 809
f 808 792 793 795
f 808 809 811 792
f 811 809 813 812
f 811 789 790 792
f 811 812 814 789
f 814 812 816 815
f 814 786 787 789
f 814 815 817 786
f 817 815 819 818
f 817 783 784 786
f 817 818 820 783
f 820 818 822 821
f 820 780 781 783
f 820 821 773 780
f 822 825 824 823
f 822 818 819 825
f 822 823 826 821
f 826 823 828 827
f 826 771 773 821
f 826 827 769 771
f 828 831 830 829
f 828 823 824 831
f 828 829 832 827
f 832 829 834 833
f 832 768 769 827
f 832 833 767 768
f 834 836 706 835
f 834 829 830 836
f 834 835 837 833
f 837 835 711 626
f 837 838 767 833
f 837 626 623 838
f 838 764 765 767
f 838 623 624 764
f 836 701 702 706
f 836 830 839 701
f 839 697 698 701
f 839 841 840 697
f 839 830 831 841
f 841 843 842 840
f 841 831 824 843
f 843 845 844 842
f 843 824 825 845
f 845 847 846 844
f 845 825 819 847
f 847 816 848 846
f 847 819 815 816
f 848 850 849 846
f 848 813 851 850
f 848 816 812 813
f 851 853 852 850
f 851 810 854 853
f 851 813 809 810
f 854 856 855 853
f 854 807 857 856
f 854 810 806 807
f 857 859 858 856
f 857 629 630 859
f 857 807 804 629
f 859 861 860 858
f 859 630 631 861
f 861 669 670 860
f 861 631 675 669
f 860 670 863 862
f 860 862 864 858
f 864 862 866 865
f 864 855 856 858
f 864 865 867 855
f 867 865 869 868
f 867 852 853 855
f 867 868 870 852
f 870 868 658 656
f 870 849 850 852
f 870 656 657 849
f 869 873 872 871
f 869 865 866 873
f 869 871 658 868
f 873 875 874 872
f 873 866 876 875
f 876 878 877 875
f 876 863 879 878
f 876 866 862 863
f 879 881 880 878
f 879 671 672 881
f 879 863 670 671
f 881 883 882 880
f 881 672 680 883
f 883 676 884 882
f 883 680 584 676
f 884 887 886 885
f 884 676 677 887
f 884 885 888 882
f 888 885 890 889
f 888 891 880 882
f 888 889 892 891
f 892 889 894 893
f 892 895 877 891
f 892 893 896 895
f 896 893 898 897
f 896 899 874 895
f 896 897 900 899
f 900 897 341 340
f 900 902 901 899
f 900 340 344 902
f 344 346 903 902
f 346 347 654 903
f 347 348 653 654
f 348 349 652 653
f 349 130 692 652
f 903 904 901 902
f 903 654 655 904
f 904 871 872 901
f 904 655 658 871
f 901 872 874 899
f 341 897 898 351
f 351 898 905 352
f 905 906 354 352
f 905 894 907 906
f 905 898 893 894
f 907 909 908 906
f 907 890 910 909
f 907 894 889 890
f 910 912 911 909
f 910 886 913 912
f 910 890 885 886
f 913 915 914 912
f 913 684 685 915
f 913 886 887 684
f 915 917 916 914
f 915 685 686 917
f 917 919 918 916
f 917 686 920 919
f 920 922 921 919
f 920 924 923 922
f 920 686 681 924
f 924 926 925 923
f 924 681 682 926
f 926 679 673 925
f 926 682 678 679
f 925 928 927 923
f 925 673 583 928
f 928 930 929 927
f 928 583 674 930
f 930 932 931 929
f 930 674 933 932
f 933 935 934 932
f 933 636 634 935
f 933 674 675 636
f 935 937 936 934
f 935 634 635 937
f 937 939 938 936
f 937 635 940 939
f 940 942 941 939
f 940 944 943 942
f 940 635 633 944
f 944 609 606 943
f 944 633 576 609
f 943 946 945 942
f 943 606 607 946
f 946 948 947 945
f 946 607 949 948
f 949 951 950 948
f 949 953 952 951
f 949 607 604 953
f 953 955 954 952
f 953 604 599 955
f 955 687 689 954
f 955 599 600 687
f 954 957 956 952
f 954 689 958 957
f 958 959 596 957
f 958 961 960 959
f 958 689 690 961
f 961 412 411 960
f 961 690 123 412
f 411 414 962 960
f 414 416 963 962
f 416 418 964 963
f 418 420 965 964
f 420 422 966 965
f 422 424 967 966
f 424 426 968 967
f 426 428 969 968
f 428 430 970 969
f 430 432 971 970
f 432 434 972 971
f 434 436 973 972
f 436 438 974 973
f 438 440 975 974
f 440 442 976 975
f 442 444 977 976
f 444 446 978 977
f 446 448 979 978
f 448 450 980 979
f 450 452 981 980
f 452 454 982 981
f 454 456 983 982
f 456 458 984 983
f 458 460 985 984
f 460 462 986 985
f 462 464 987 986
f 464 465 908 987
f 465 354 906 908
f 987 911 988 986
f 987 908 909 911
f 988 989 985 986
f 988 914 916 989
f 988 911 912 914
f 989 990 984 985
f 989 916 918 990
f 990 991 983 984
f 990 918 992 991
f 992 994 993 991
f 992 921 995 994
f 992 918 919 921
f 995 997 996 994
f 995 999 998 997
f 995 921 922 999
f 999 927 929 998
f 999 922 923 927
f 998 1001 1000 997
f 998 929 931 1001
f 1001 1003 1002 1000
f 1001 931 1004 1003
f 1004 1006 1005 1003
f 1004 934 936 1006
f 1004 931 932 934
f 1006 1008 1007 1005
f 1006 936 938 1008
f 1008 1010 1009 1007
f 1008 938 1011 1010
f 1011 1013 1012 1010
f 1011 941 1014 1013
f 1011 938 939 941
f 1014 1016 1015 1013
f 1014 945 947 1016
f 1014 941 942 945
f 1016 1018 1017 1015
f 1016 947 1019 1018
f 1019 1021 1020 1018
f 1019 950 1022 1021
f 1019 947 948 950
f 1022 1024 1023 1021
f 1022 1025 598 1024
f 1022 950 951 1025
f 1025 956 597 598
f 1025 951 952 956
f 1024 1027 1026 1023
f 1024 598 593 1027
f 1027 1029 1028 1026
f 1027 593 594 1029
f 1029 1031 1030 1028
f 1029 594 1032 1031
f 1032 963 964 1031
f 1032 1033 962 963
f 1032 594 595 1033
f 1033 959 960 962
f 1033 595 596 959
f 1031 964 965 1030
f 1030 965 966 1034
f 1030 1034 1035 1028
f 1035 1034 1037 1036
f 1035 1038 1026 1028
f 1035 1036 1039 1038
f 1039 1036 1041 1040
f 1039 1043 1042 1038
f 1039 1040 1044 1043
f 1044 1040 589 590
f 1044 1046 1045 1043
f 1044 590 1047 1046
f 1047 590 591 1048
f 1047 1050 1049 1046
f 1047 1048 1051 1050
f 1051 1048 1053 1052
f 1051 1055 1054 1050
f 1051 1052 1056 1055
f 1056 1052 1058 1057
f 1056 1060 1059 1055
f 1056 1057 1061 1060
f 1061 1057 974 975
f 1061 1063 1062 1060
f 1061 975 976 1063
f 1063 1065 1064 1062
f 1063 976 977 1065
f 1065 1067 1066 1064
f 1065 977 978 1067
f 1067 1069 1068 1066
f 1067 978 979 1069
f 1069 1071 1070 1068
f 1069 979 980 1071
f 1071 1072 996 1070
f 1071 980 981 1072
f 1072 993 994 996
f 1072 981 982 993
f 1070 1000 1002 1068
f 1070 996 997 1000
f 1068 1002 1073 1066
f 1073 1074 1064 1066
f 1073 1005 1007 1074
f 1073 1002 1003 1005
f 1074 1075 1062 1064
f 1074 1007 1009 1075
f 1075 1059 1060 1062
f 1075 1009 1076 1059
f 1076 1054 1055 1059
f 1076 1012 1077 1054
f 1076 1009 1010 1012
f 1077 1049 1050 1054
f 1077 1015 1017 1049
f 1077 1012 1013 1015
f 1058 1078 972 973
f 1058 1052 1053 1078
f 1058 973 974 1057
f 1078 1079 971 972
f 1078 1053 592 1079
f 1079 1080 970 971
f 1079 592 587 1080
f 1080 1081 969 970
f 1080 587 588 1081
f 1081 1082 968 969
f 1081 588 1041 1082
f 1082 1037 967 968
f 1082 1041 1036 1037
f 1053 1048 591 592
f 1049 1017 1045 1046
f 1045 1020 1042 1043
f 1045 1017 1018 1020
f 1042 1023 1026 1038
f 1042 1020 1021 1023
f 1041 588 589 1040
f 1037 1034 966 967
f 993 982 983 991
f 957 596 597 956
f 895 874 875 877
f 891 877 878 880
f 887 677 683 684
f 849 657 844 846
f 844 657 649 842
f 842 649 650 840
f 840 650 695 697
f 835 706 707 711
f 780 773 774 776
f 764 624 760 761
f 760 624 625 1083
f 760 1083 757 758
f 1083 625 627 1084
f 1083 1084 1085 757
f 1085 1084 1087 1086
f 1085 660 755 757
f 1085 1086 659 660
f 1087 1089 1088 644
f 1087 1084 627 1089
f 1087 644 645 1086
f 1089 1090 731 1088
f 1089 627 622 1090
f 1090 726 727 731
f 1090 622 618 726
f 1088 731 732 736
f 1088 736 643 644
f 1086 645 646 659
f 755 660 661 753
f 753 661 662 750
f 746 662 663 745
f 745 647 648 741
f 745 663 646 647
f 737 648 643 736
f 726 618 619 722
f 712 621 626 711
f 705 700 613 614
f 695 650 651 693
f 693 651 652 692
f 683 677 678 682
f 680 672 673 679
f 675 631 632 636
f 614 611 601 602

 